<svg width="32" height="32" viewBox="0 0 32 32" fill="none" xmlns="http://www.w3.org/2000/svg">
<path fill-rule="evenodd" clip-rule="evenodd" d="M13.6328 4.20608C13.8879 4.46163 13.9854 4.83485 13.8879 5.1825C13.3853 6.97493 13.3688 8.86884 13.8402 10.6697C14.3115 12.4706 15.2538 14.1136 16.5701 15.4299C17.8864 16.7463 19.5294 17.6885 21.3303 18.1599C23.1312 18.6312 25.0251 18.6148 26.8175 18.1121L27.0875 19.075L28.0509 19.3431C27.4653 21.4471 26.3387 23.361 24.7832 24.894C23.2277 26.4271 21.2978 27.5259 19.1855 28.0809C17.0733 28.636 14.8524 28.6279 12.7443 28.0576C10.6361 27.4872 8.71413 26.3745 7.16983 24.8302C5.62553 23.2859 4.51279 21.3639 3.94245 19.2558C3.3721 17.1476 3.36405 14.9268 3.9191 12.8145C4.47415 10.7023 5.57293 8.77228 7.10599 7.21683C8.63906 5.66138 10.5529 4.53473 12.6569 3.94912C13.0047 3.8523 13.3778 3.95052 13.6328 4.20608ZM25.536 20.4051C23.9654 20.6015 22.366 20.4983 20.8239 20.0947C18.6795 19.5334 16.7232 18.4115 15.1559 16.8441C13.5885 15.2768 12.4666 13.3205 11.9053 11.1762C11.5017 9.63403 11.3985 8.03462 11.595 6.46407C10.4565 6.99147 9.41758 7.72064 8.53042 8.62075C7.24265 9.92733 6.31967 11.5485 5.85343 13.3228C5.38719 15.0971 5.39395 16.9626 5.87304 18.7335C6.35213 20.5043 7.28684 22.1188 8.58405 23.416C9.88126 24.7132 11.4957 25.6479 13.2666 26.127C15.0374 26.6061 16.9029 26.6128 18.6772 26.1466C20.4515 25.6804 22.0727 24.7574 23.3793 23.4696C24.2794 22.5824 25.0086 21.5435 25.536 20.4051Z" fill="black"/>
</svg>
