<svg width="32" height="32" viewBox="0 0 32 32" fill="none" xmlns="http://www.w3.org/2000/svg">
<path fill-rule="evenodd" clip-rule="evenodd" d="M16 9.5C12.4101 9.5 9.5 12.4101 9.5 16C9.5 19.5899 12.4101 22.5 16 22.5C19.5899 22.5 22.5 19.5899 22.5 16C22.5 12.4101 19.5899 9.5 16 9.5ZM7.5 16C7.5 11.3056 11.3056 7.5 16 7.5C20.6944 7.5 24.5 11.3056 24.5 16C24.5 20.6944 20.6944 24.5 16 24.5C11.3056 24.5 7.5 20.6944 7.5 16Z" fill="black"/>
<path fill-rule="evenodd" clip-rule="evenodd" d="M16 1C16.5523 1 17 1.44772 17 2V4.5C17 5.05228 16.5523 5.5 16 5.5C15.4477 5.5 15 5.05228 15 4.5V2C15 1.44772 15.4477 1 16 1Z" fill="black"/>
<path fill-rule="evenodd" clip-rule="evenodd" d="M5.39287 5.39287C5.78339 5.00234 6.41656 5.00234 6.80708 5.39287L8.56958 7.15537C8.96011 7.54589 8.96011 8.17906 8.56958 8.56958C8.17906 8.96011 7.54589 8.96011 7.15537 8.56958L5.39287 6.80708C5.00234 6.41656 5.00234 5.78339 5.39287 5.39287Z" fill="black"/>
<path fill-rule="evenodd" clip-rule="evenodd" d="M1 16C1 15.4477 1.44772 15 2 15H4.5C5.05228 15 5.5 15.4477 5.5 16C5.5 16.5523 5.05228 17 4.5 17H2C1.44772 17 1 16.5523 1 16Z" fill="black"/>
<path fill-rule="evenodd" clip-rule="evenodd" d="M8.56958 23.4303C8.96011 23.8209 8.96011 24.454 8.56958 24.8446L6.80708 26.6071C6.41656 26.9976 5.78339 26.9976 5.39287 26.6071C5.00234 26.2165 5.00234 25.5834 5.39287 25.1928L7.15537 23.4303C7.54589 23.0398 8.17906 23.0398 8.56958 23.4303Z" fill="black"/>
<path fill-rule="evenodd" clip-rule="evenodd" d="M16 26.5C16.5523 26.5 17 26.9477 17 27.5V30C17 30.5523 16.5523 31 16 31C15.4477 31 15 30.5523 15 30V27.5C15 26.9477 15.4477 26.5 16 26.5Z" fill="black"/>
<path fill-rule="evenodd" clip-rule="evenodd" d="M23.4303 23.4303C23.8209 23.0398 24.454 23.0398 24.8446 23.4303L26.6071 25.1928C26.9976 25.5834 26.9976 26.2165 26.6071 26.6071C26.2165 26.9976 25.5834 26.9976 25.1928 26.6071L23.4303 24.8446C23.0398 24.454 23.0398 23.8209 23.4303 23.4303Z" fill="black"/>
<path fill-rule="evenodd" clip-rule="evenodd" d="M26.5 16C26.5 15.4477 26.9477 15 27.5 15H30C30.5523 15 31 15.4477 31 16C31 16.5523 30.5523 17 30 17H27.5C26.9477 17 26.5 16.5523 26.5 16Z" fill="black"/>
<path fill-rule="evenodd" clip-rule="evenodd" d="M26.6071 5.39287C26.9976 5.78339 26.9976 6.41656 26.6071 6.80708L24.8446 8.56958C24.454 8.96011 23.8209 8.96011 23.4303 8.56958C23.0398 8.17906 23.0398 7.54589 23.4303 7.15537L25.1928 5.39287C25.5834 5.00234 26.2165 5.00234 26.6071 5.39287Z" fill="black"/>
</svg>
